# xmcd CD database file
#
# Track frame offsets:
#	150
#	13297
#	26367
#	37655
#	50577
#	63420
#	77400
#	89355
#	105270
#	118815
#	133100
#	146092
#	159427
#	172317
#	185817
#	198505
#	211545
#	225587
#	238590
#	253987
#	267292
#	281595
#
# Disc length: 3901 seconds
#
# Revision: 0
# Processed by: cddbd v1.5.1PL0 Copyright (c) Steve Scherf et al.
# Submitted via: CDex 1.50beta9
#
DISCID=370f3b16
DTITLE=Jazz Classic - The Classic Jazz Collection
DYEAR=1900
DGENRE=Jazz
TTITLE0=King Oliver - Sugar Foot Stomp
TTITLE1=King Oliver - Showboat Shuffle
TTITLE2=King Oliver - Shake it and Break it
TTITLE3=King Oliver - What Ya Want me to Do
TTITLE4=King Oliver - Willie the Weeper
TTITLE5=King Oliver - My Handy Man
TTITLE6=King Oliver - New Orleans Shout
TTITLE7=King Oliver - West End Blues
TTITLE8=King Oliver - Too Bad
TTITLE9=King Oliver - Snag It
TTITLE10=King Oliver - High Society Rag
TTITLE11=King Oliver - Struggle Buggy
TTITLE12=King Oliver - Someday Sweetheart
TTITLE13=King Oliver - Snake Rag
TTITLE14=King Oliver - Mabel´s Dream
TTITLE15=King Oliver - In the Bottle Blues
TTITLE16=King Oliver - Frankie and Johnny
TTITLE17=King Oliver - Rhythm Club Stomp
TTITLE18=King Oliver - Sweet Like This
TTITLE19=King Oliver - Chattanooga Stomp
TTITLE20=King Oliver - Stingaree Blues
TTITLE21=King Oliver - Dipper Mouth Blues
EXTD=
EXTT0=
EXTT1=
EXTT2=
EXTT3=
EXTT4=
EXTT5=
EXTT6=
EXTT7=
EXTT8=
EXTT9=
EXTT10=
EXTT11=
EXTT12=
EXTT13=
EXTT14=
EXTT15=
EXTT16=
EXTT17=
EXTT18=
EXTT19=
EXTT20=
EXTT21=
PLAYORDER=
